<svg xmlns="http://www.w3.org/2000/svg" width="184.6mm" height="11.0mm" viewBox="0 0 184.6 11.0">
<rect x="0" y="0" width="100%" height="100%" fill="#ffffff"/>
<path d="M 5.0000 5.5000 A 2.5 2.5 0 1 0 10.0000 5.5000 A 2.5 2.5 0 1 0 5.0000 5.5000 Z M 6.6700 5.5000 A 0.83 0.83 0 1 0 8.3300 5.5000 A 0.83 0.83 0 1 0 6.6700 5.5000 Z" fill="#000000" fill-rule="evenodd"/>
<path d="M 11.9200 8.0000 L 11.9004 7.9990 L 11.8810 7.9962 L 11.8619 7.9914 L 11.8435 7.9848 L 11.8257 7.9764 L 11.8089 7.9663 L 11.7931 7.9546 L 11.7786 7.9414 L 11.7654 7.9269 L 11.7537 7.9111 L 11.7436 7.8943 L 11.7352 7.8765 L 11.7286 7.8581 L 11.7238 7.8390 L 11.7210 7.8196 L 11.7200 7.8000 L 11.7200 3.2000 L 11.7210 3.1804 L 11.7238 3.1610 L 11.7286 3.1419 L 11.7352 3.1235 L 11.7436 3.1057 L 11.7537 3.0889 L 11.7654 3.0731 L 11.7786 3.0586 L 11.7931 3.0454 L 11.8089 3.0337 L 11.8257 3.0236 L 11.8435 3.0152 L 11.8619 3.0086 L 11.8810 3.0038 L 11.9004 3.0010 L 11.9200 3.0000 L 14.1000 3.0000 L 14.1196 3.0010 L 14.1390 3.0038 L 14.1581 3.0086 L 14.1765 3.0152 L 14.1943 3.0236 L 14.2111 3.0337 L 14.2269 3.0454 L 14.2414 3.0586 L 14.2546 3.0731 L 14.2663 3.0889 L 14.2764 3.1057 L 14.2848 3.1235 L 14.2914 3.1419 L 14.2962 3.1610 L 14.2990 3.1804 L 14.3000 3.2000 L 14.3000 7.8000 L 14.2990 7.8196 L 14.2962 7.8390 L 14.2914 7.8581 L 14.2848 7.8765 L 14.2764 7.8943 L 14.2663 7.9111 L 14.2546 7.9269 L 14.2414 7.9414 L 14.2269 7.9546 L 14.2111 7.9663 L 14.1943 7.9764 L 14.1765 7.9848 L 14.1581 7.9914 L 14.1390 7.9962 L 14.1196 7.9990 L 14.1000 8.0000 L 11.9200 8.0000 Z M 12.5800 7.1351 L 12.5802 7.1398 L 12.5849 7.1400 L 13.4351 7.1400 L 13.4398 7.1398 L 13.4400 7.1351 L 13.4400 3.8649 L 13.4398 3.8602 L 13.4351 3.8600 L 12.5849 3.8600 L 12.5802 3.8602 L 12.5800 3.8649 L 12.5800 7.1351 Z" fill="#000000" fill-rule="evenodd"/>
<path d="M 16.0200 5.5000 A 2.5 2.5 0 1 0 21.0200 5.5000 A 2.5 2.5 0 1 0 16.0200 5.5000 Z M 17.6900 5.5000 A 0.83 0.83 0 1 0 19.3500 5.5000 A 0.83 0.83 0 1 0 17.6900 5.5000 Z" fill="#000000" fill-rule="evenodd"/>
<path d="M 25.3200 7.8000 L 25.3190 7.8196 L 25.3162 7.8390 L 25.3114 7.8581 L 25.3048 7.8765 L 25.2964 7.8943 L 25.2863 7.9111 L 25.2746 7.9269 L 25.2614 7.9414 L 25.2469 7.9546 L 25.2311 7.9663 L 25.2143 7.9764 L 25.1965 7.9848 L 25.1781 7.9914 L 25.1590 7.9962 L 25.1396 7.9990 L 25.1200 8.0000 L 24.6600 8.0000 L 24.6404 7.9990 L 24.6210 7.9962 L 24.6019 7.9914 L 24.5835 7.9848 L 24.5657 7.9764 L 24.5489 7.9663 L 24.5331 7.9546 L 24.5186 7.9414 L 24.5054 7.9269 L 24.4937 7.9111 L 24.4836 7.8943 L 24.4752 7.8765 L 24.4686 7.8581 L 24.4638 7.8390 L 24.4610 7.8196 L 24.4600 7.8000 L 24.4600 3.2000 L 24.4610 3.1804 L 24.4638 3.1610 L 24.4686 3.1419 L 24.4752 3.1235 L 24.4836 3.1057 L 24.4937 3.0889 L 24.5054 3.0731 L 24.5186 3.0586 L 24.5331 3.0454 L 24.5489 3.0337 L 24.5657 3.0236 L 24.5835 3.0152 L 24.6019 3.0086 L 24.6210 3.0038 L 24.6404 3.0010 L 24.6600 3.0000 L 25.1200 3.0000 L 25.1396 3.0010 L 25.1590 3.0038 L 25.1781 3.0086 L 25.1965 3.0152 L 25.2143 3.0236 L 25.2311 3.0337 L 25.2469 3.0454 L 25.2614 3.0586 L 25.2746 3.0731 L 25.2863 3.0889 L 25.2964 3.1057 L 25.3048 3.1235 L 25.3114 3.1419 L 25.3162 3.1610 L 25.3190 3.1804 L 25.3200 3.2000 L 25.3200 7.8000 Z" fill="#000000" fill-rule="evenodd"/>
<path d="M 27.0400 5.5000 A 2.5 2.5 0 1 0 32.0400 5.5000 A 2.5 2.5 0 1 0 27.0400 5.5000 Z M 28.7100 5.5000 A 0.83 0.83 0 1 0 30.3700 5.5000 A 0.83 0.83 0 1 0 28.7100 5.5000 Z" fill="#000000" fill-rule="evenodd"/>
<path d="M 34.6202 7.1398 L 34.6249 7.1400 L 36.1400 7.1400 L 36.1596 7.1410 L 36.1790 7.1438 L 36.1981 7.1486 L 36.2165 7.1552 L 36.2343 7.1636 L 36.2511 7.1737 L 36.2669 7.1854 L 36.2814 7.1986 L 36.2946 7.2131 L 36.3063 7.2289 L 36.3164 7.2457 L 36.3248 7.2635 L 36.3314 7.2819 L 36.3362 7.3010 L 36.3390 7.3204 L 36.3400 7.3400 L 36.3400 7.8000 L 36.3390 7.8196 L 36.3362 7.8390 L 36.3314 7.8581 L 36.3248 7.8765 L 36.3164 7.8943 L 36.3063 7.9111 L 36.2946 7.9269 L 36.2814 7.9414 L 36.2669 7.9546 L 36.2511 7.9663 L 36.2343 7.9764 L 36.2165 7.9848 L 36.1981 7.9914 L 36.1790 7.9962 L 36.1596 7.9990 L 36.1400 8.0000 L 33.9600 8.0000 L 33.9404 7.9990 L 33.9210 7.9962 L 33.9019 7.9914 L 33.8835 7.9848 L 33.8657 7.9764 L 33.8489 7.9663 L 33.8331 7.9546 L 33.8186 7.9414 L 33.8054 7.9269 L 33.7937 7.9111 L 33.7836 7.8943 L 33.7752 7.8765 L 33.7686 7.8581 L 33.7638 7.8390 L 33.7610 7.8196 L 33.7600 7.8000 L 33.7600 5.2700 L 33.7610 5.2504 L 33.7638 5.2310 L 33.7686 5.2119 L 33.7752 5.1935 L 33.7836 5.1757 L 33.7937 5.1589 L 33.8054 5.1431 L 33.8186 5.1286 L 33.8331 5.1154 L 33.8489 5.1037 L 33.8657 5.0936 L 33.8835 5.0852 L 33.9019 5.0786 L 33.9210 5.0738 L 33.9404 5.0710 L 33.9600 5.0700 L 35.4751 5.0700 L 35.4798 5.0698 L 35.4800 5.0651 L 35.4800 3.8649 L 35.4798 3.8602 L 35.4751 3.8600 L 33.9600 3.8600 L 33.9404 3.8590 L 33.9210 3.8562 L 33.9019 3.8514 L 33.8835 3.8448 L 33.8657 3.8364 L 33.8489 3.8263 L 33.8331 3.8146 L 33.8186 3.8014 L 33.8054 3.7869 L 33.7937 3.7711 L 33.7836 3.7543 L 33.7752 3.7365 L 33.7686 3.7181 L 33.7638 3.6990 L 33.7610 3.6796 L 33.7600 3.6600 L 33.7600 3.2000 L 33.7610 3.1804 L 33.7638 3.1610 L 33.7686 3.1419 L 33.7752 3.1235 L 33.7836 3.1057 L 33.7937 3.0889 L 33.8054 3.0731 L 33.8186 3.0586 L 33.8331 3.0454 L 33.8489 3.0337 L 33.8657 3.0236 L 33.8835 3.0152 L 33.9019 3.0086 L 33.9210 3.0038 L 33.9404 3.0010 L 33.9600 3.0000 L 36.1400 3.0000 L 36.1596 3.0010 L 36.1790 3.0038 L 36.1981 3.0086 L 36.2165 3.0152 L 36.2343 3.0236 L 36.2511 3.0337 L 36.2669 3.0454 L 36.2814 3.0586 L 36.2946 3.0731 L 36.3063 3.0889 L 36.3164 3.1057 L 36.3248 3.1235 L 36.3314 3.1419 L 36.3362 3.1610 L 36.3390 3.1804 L 36.3400 3.2000 L 36.3400 5.7300 L 36.3390 5.7496 L 36.3362 5.7690 L 36.3314 5.7881 L 36.3248 5.8065 L 36.3164 5.8243 L 36.3063 5.8411 L 36.2946 5.8569 L 36.2814 5.8714 L 36.2669 5.8846 L 36.2511 5.8963 L 36.2343 5.9064 L 36.2165 5.9148 L 36.1981 5.9214 L 36.1790 5.9262 L 36.1596 5.9290 L 36.1400 5.9300 L 34.6249 5.9300 L 34.6202 5.9302 L 34.6200 5.9349 L 34.6200 7.1351 L 34.6202 7.1398 Z" fill="#000000" fill-rule="evenodd"/>
<path d="M 38.0600 5.5000 A 2.5 2.5 0 1 0 43.0600 5.5000 A 2.5 2.5 0 1 0 38.0600 5.5000 Z M 39.7300 5.5000 A 0.83 0.83 0 1 0 41.3900 5.5000 A 0.83 0.83 0 1 0 39.7300 5.5000 Z" fill="#000000" fill-rule="evenodd"/>
<path d="M 44.9800 8.0000 L 44.9604 7.9990 L 44.9410 7.9962 L 44.9219 7.9914 L 44.9035 7.9848 L 44.8857 7.9764 L 44.8689 7.9663 L 44.8531 7.9546 L 44.8386 7.9414 L 44.8254 7.9269 L 44.8137 7.9111 L 44.8036 7.8943 L 44.7952 7.8765 L 44.7886 7.8581 L 44.7838 7.8390 L 44.7810 7.8196 L 44.7800 7.8000 L 44.7800 7.3400 L 44.7810 7.3204 L 44.7838 7.3010 L 44.7886 7.2819 L 44.7952 7.2635 L 44.8036 7.2457 L 44.8137 7.2289 L 44.8254 7.2131 L 44.8386 7.1986 L 44.8531 7.1854 L 44.8689 7.1737 L 44.8857 7.1636 L 44.9035 7.1552 L 44.9219 7.1486 L 44.9410 7.1438 L 44.9604 7.1410 L 44.9800 7.1400 L 46.4951 7.1400 L 46.4998 7.1398 L 46.5000 7.1351 L 46.5000 5.9349 L 46.4998 5.9302 L 46.4951 5.9300 L 44.9800 5.9300 L 44.9604 5.9290 L 44.9410 5.9262 L 44.9219 5.9214 L 44.9035 5.9148 L 44.8857 5.9064 L 44.8689 5.8963 L 44.8531 5.8846 L 44.8386 5.8714 L 44.8254 5.8569 L 44.8137 5.8411 L 44.8036 5.8243 L 44.7952 5.8065 L 44.7886 5.7881 L 44.7838 5.7690 L 44.7810 5.7496 L 44.7800 5.7300 L 44.7800 5.2700 L 44.7810 5.2504 L 44.7838 5.2310 L 44.7886 5.2119 L 44.7952 5.1935 L 44.8036 5.1757 L 44.8137 5.1589 L 44.8254 5.1431 L 44.8386 5.1286 L 44.8531 5.1154 L 44.8689 5.1037 L 44.8857 5.0936 L 44.9035 5.0852 L 44.9219 5.0786 L 44.9410 5.0738 L 44.9604 5.0710 L 44.9800 5.0700 L 46.4951 5.0700 L 46.4998 5.0698 L 46.5000 5.0651 L 46.5000 3.8649 L 46.4998 3.8602 L 46.4951 3.8600 L 44.9800 3.8600 L 44.9604 3.8590 L 44.9410 3.8562 L 44.9219 3.8514 L 44.9035 3.8448 L 44.8857 3.8364 L 44.8689 3.8263 L 44.8531 3.8146 L 44.8386 3.8014 L 44.8254 3.7869 L 44.8137 3.7711 L 44.8036 3.7543 L 44.7952 3.7365 L 44.7886 3.7181 L 44.7838 3.6990 L 44.7810 3.6796 L 44.7800 3.6600 L 44.7800 3.2000 L 44.7810 3.1804 L 44.7838 3.1610 L 44.7886 3.1419 L 44.7952 3.1235 L 44.8036 3.1057 L 44.8137 3.0889 L 44.8254 3.0731 L 44.8386 3.0586 L 44.8531 3.0454 L 44.8689 3.0337 L 44.8857 3.0236 L 44.9035 3.0152 L 44.9219 3.0086 L 44.9410 3.0038 L 44.9604 3.0010 L 44.9800 3.0000 L 47.1600 3.0000 L 47.1796 3.0010 L 47.1990 3.0038 L 47.2181 3.0086 L 47.2365 3.0152 L 47.2543 3.0236 L 47.2711 3.0337 L 47.2869 3.0454 L 47.3014 3.0586 L 47.3146 3.0731 L 47.3263 3.0889 L 47.3364 3.1057 L 47.3448 3.1235 L 47.3514 3.1419 L 47.3562 3.1610 L 47.3590 3.1804 L 47.3600 3.2000 L 47.3600 7.8000 L 47.3590 7.8196 L 47.3562 7.8390 L 47.3514 7.8581 L 47.3448 7.8765 L 47.3364 7.8943 L 47.3263 7.9111 L 47.3146 7.9269 L 47.3014 7.9414 L 47.2869 7.9546 L 47.2711 7.9663 L 47.2543 7.9764 L 47.2365 7.9848 L 47.2181 7.9914 L 47.1990 7.9962 L 47.1796 7.9990 L 47.1600 8.0000 L 44.9800 8.0000 Z" fill="#000000" fill-rule="evenodd"/>
<path d="M 49.0800 5.5000 A 2.5 2.5 0 1 0 54.0800 5.5000 A 2.5 2.5 0 1 0 49.0800 5.5000 Z M 50.7500 5.5000 A 0.83 0.83 0 1 0 52.4100 5.5000 A 0.83 0.83 0 1 0 50.7500 5.5000 Z" fill="#000000" fill-rule="evenodd"/>
<path d="M 56.6602 5.0698 L 56.6649 5.0700 L 57.5151 5.0700 L 57.5198 5.0698 L 57.5200 5.0651 L 57.5200 3.2000 L 57.5210 3.1804 L 57.5238 3.1610 L 57.5286 3.1419 L 57.5352 3.1235 L 57.5436 3.1057 L 57.5537 3.0889 L 57.5654 3.0731 L 57.5786 3.0586 L 57.5931 3.0454 L 57.6089 3.0337 L 57.6257 3.0236 L 57.6435 3.0152 L 57.6619 3.0086 L 57.6810 3.0038 L 57.7004 3.0010 L 57.7200 3.0000 L 58.1800 3.0000 L 58.1996 3.0010 L 58.2190 3.0038 L 58.2381 3.0086 L 58.2565 3.0152 L 58.2743 3.0236 L 58.2911 3.0337 L 58.3069 3.0454 L 58.3214 3.0586 L 58.3346 3.0731 L 58.3463 3.0889 L 58.3564 3.1057 L 58.3648 3.1235 L 58.3714 3.1419 L 58.3762 3.1610 L 58.3790 3.1804 L 58.3800 3.2000 L 58.3800 7.8000 L 58.3790 7.8196 L 58.3762 7.8390 L 58.3714 7.8581 L 58.3648 7.8765 L 58.3564 7.8943 L 58.3463 7.9111 L 58.3346 7.9269 L 58.3214 7.9414 L 58.3069 7.9546 L 58.2911 7.9663 L 58.2743 7.9764 L 58.2565 7.9848 L 58.2381 7.9914 L 58.2190 7.9962 L 58.1996 7.9990 L 58.1800 8.0000 L 57.7200 8.0000 L 57.7004 7.9990 L 57.6810 7.9962 L 57.6619 7.9914 L 57.6435 7.9848 L 57.6257 7.9764 L 57.6089 7.9663 L 57.5931 7.9546 L 57.5786 7.9414 L 57.5654 7.9269 L 57.5537 7.9111 L 57.5436 7.8943 L 57.5352 7.8765 L 57.5286 7.8581 L 57.5238 7.8390 L 57.5210 7.8196 L 57.5200 7.8000 L 57.5200 5.9349 L 57.5198 5.9302 L 57.5151 5.9300 L 56.0000 5.9300 L 55.9804 5.9290 L 55.9610 5.9262 L 55.9419 5.9214 L 55.9235 5.9148 L 55.9057 5.9064 L 55.8889 5.8963 L 55.8731 5.8846 L 55.8586 5.8714 L 55.8454 5.8569 L 55.8337 5.8411 L 55.8236 5.8243 L 55.8152 5.8065 L 55.8086 5.7881 L 55.8038 5.7690 L 55.8010 5.7496 L 55.8000 5.7300 L 55.8000 3.2000 L 55.8010 3.1804 L 55.8038 3.1610 L 55.8086 3.1419 L 55.8152 3.1235 L 55.8236 3.1057 L 55.8337 3.0889 L 55.8454 3.0731 L 55.8586 3.0586 L 55.8731 3.0454 L 55.8889 3.0337 L 55.9057 3.0236 L 55.9235 3.0152 L 55.9419 3.0086 L 55.9610 3.0038 L 55.9804 3.0010 L 56.0000 3.0000 L 56.4600 3.0000 L 56.4796 3.0010 L 56.4990 3.0038 L 56.5181 3.0086 L 56.5365 3.0152 L 56.5543 3.0236 L 56.5711 3.0337 L 56.5869 3.0454 L 56.6014 3.0586 L 56.6146 3.0731 L 56.6263 3.0889 L 56.6364 3.1057 L 56.6448 3.1235 L 56.6514 3.1419 L 56.6562 3.1610 L 56.6590 3.1804 L 56.6600 3.2000 L 56.6600 5.0651 L 56.6602 5.0698 Z" fill="#000000" fill-rule="evenodd"/>
<path d="M 60.1000 5.5000 A 2.5 2.5 0 1 0 65.1000 5.5000 A 2.5 2.5 0 1 0 60.1000 5.5000 Z M 61.7700 5.5000 A 0.83 0.83 0 1 0 63.4300 5.5000 A 0.83 0.83 0 1 0 61.7700 5.5000 Z" fill="#000000" fill-rule="evenodd"/>
<path d="M 67.0200 8.0000 L 67.0004 7.9990 L 66.9810 7.9962 L 66.9619 7.9914 L 66.9435 7.9848 L 66.9257 7.9764 L 66.9089 7.9663 L 66.8931 7.9546 L 66.8786 7.9414 L 66.8654 7.9269 L 66.8537 7.9111 L 66.8436 7.8943 L 66.8352 7.8765 L 66.8286 7.8581 L 66.8238 7.8390 L 66.8210 7.8196 L 66.8200 7.8000 L 66.8200 7.3400 L 66.8210 7.3204 L 66.8238 7.3010 L 66.8286 7.2819 L 66.8352 7.2635 L 66.8436 7.2457 L 66.8537 7.2289 L 66.8654 7.2131 L 66.8786 7.1986 L 66.8931 7.1854 L 66.9089 7.1737 L 66.9257 7.1636 L 66.9435 7.1552 L 66.9619 7.1486 L 66.9810 7.1438 L 67.0004 7.1410 L 67.0200 7.1400 L 68.5351 7.1400 L 68.5398 7.1398 L 68.5400 7.1351 L 68.5400 5.9349 L 68.5398 5.9302 L 68.5351 5.9300 L 67.0200 5.9300 L 67.0004 5.9290 L 66.9810 5.9262 L 66.9619 5.9214 L 66.9435 5.9148 L 66.9257 5.9064 L 66.9089 5.8963 L 66.8931 5.8846 L 66.8786 5.8714 L 66.8654 5.8569 L 66.8537 5.8411 L 66.8436 5.8243 L 66.8352 5.8065 L 66.8286 5.7881 L 66.8238 5.7690 L 66.8210 5.7496 L 66.8200 5.7300 L 66.8200 3.2000 L 66.8210 3.1804 L 66.8238 3.1610 L 66.8286 3.1419 L 66.8352 3.1235 L 66.8436 3.1057 L 66.8537 3.0889 L 66.8654 3.0731 L 66.8786 3.0586 L 66.8931 3.0454 L 66.9089 3.0337 L 66.9257 3.0236 L 66.9435 3.0152 L 66.9619 3.0086 L 66.9810 3.0038 L 67.0004 3.0010 L 67.0200 3.0000 L 69.2000 3.0000 L 69.2196 3.0010 L 69.2390 3.0038 L 69.2581 3.0086 L 69.2765 3.0152 L 69.2943 3.0236 L 69.3111 3.0337 L 69.3269 3.0454 L 69.3414 3.0586 L 69.3546 3.0731 L 69.3663 3.0889 L 69.3764 3.1057 L 69.3848 3.1235 L 69.3914 3.1419 L 69.3962 3.1610 L 69.3990 3.1804 L 69.4000 3.2000 L 69.4000 3.6600 L 69.3990 3.6796 L 69.3962 3.6990 L 69.3914 3.7181 L 69.3848 3.7365 L 69.3764 3.7543 L 69.3663 3.7711 L 69.3546 3.7869 L 69.3414 3.8014 L 69.3269 3.8146 L 69.3111 3.8263 L 69.2943 3.8364 L 69.2765 3.8448 L 69.2581 3.8514 L 69.2390 3.8562 L 69.2196 3.8590 L 69.2000 3.8600 L 67.6849 3.8600 L 67.6802 3.8602 L 67.6800 3.8649 L 67.6800 5.0651 L 67.6802 5.0698 L 67.6849 5.0700 L 69.2000 5.0700 L 69.2196 5.0710 L 69.2390 5.0738 L 69.2581 5.0786 L 69.2765 5.0852 L 69.2943 5.0936 L 69.3111 5.1037 L 69.3269 5.1154 L 69.3414 5.1286 L 69.3546 5.1431 L 69.3663 5.1589 L 69.3764 5.1757 L 69.3848 5.1935 L 69.3914 5.2119 L 69.3962 5.2310 L 69.3990 5.2504 L 69.4000 5.2700 L 69.4000 7.8000 L 69.3990 7.8196 L 69.3962 7.8390 L 69.3914 7.8581 L 69.3848 7.8765 L 69.3764 7.8943 L 69.3663 7.9111 L 69.3546 7.9269 L 69.3414 7.9414 L 69.3269 7.9546 L 69.3111 7.9663 L 69.2943 7.9764 L 69.2765 7.9848 L 69.2581 7.9914 L 69.2390 7.9962 L 69.2196 7.9990 L 69.2000 8.0000 L 67.0200 8.0000 Z" fill="#000000" fill-rule="evenodd"/>
<path d="M 71.1200 5.5000 A 2.5 2.5 0 1 0 76.1200 5.5000 A 2.5 2.5 0 1 0 71.1200 5.5000 Z M 72.7900 5.5000 A 0.83 0.83 0 1 0 74.4500 5.5000 A 0.83 0.83 0 1 0 72.7900 5.5000 Z" fill="#000000" fill-rule="evenodd"/>
<path d="M 78.0400 8.0000 L 78.0204 7.9990 L 78.0010 7.9962 L 77.9819 7.9914 L 77.9635 7.9848 L 77.9457 7.9764 L 77.9289 7.9663 L 77.9131 7.9546 L 77.8986 7.9414 L 77.8854 7.9269 L 77.8737 7.9111 L 77.8636 7.8943 L 77.8552 7.8765 L 77.8486 7.8581 L 77.8438 7.8390 L 77.8410 7.8196 L 77.8400 7.8000 L 77.8400 3.2000 L 77.8410 3.1804 L 77.8438 3.1610 L 77.8486 3.1419 L 77.8552 3.1235 L 77.8636 3.1057 L 77.8737 3.0889 L 77.8854 3.0731 L 77.8986 3.0586 L 77.9131 3.0454 L 77.9289 3.0337 L 77.9457 3.0236 L 77.9635 3.0152 L 77.9819 3.0086 L 78.0010 3.0038 L 78.0204 3.0010 L 78.0400 3.0000 L 80.2200 3.0000 L 80.2396 3.0010 L 80.2590 3.0038 L 80.2781 3.0086 L 80.2965 3.0152 L 80.3143 3.0236 L 80.3311 3.0337 L 80.3469 3.0454 L 80.3614 3.0586 L 80.3746 3.0731 L 80.3863 3.0889 L 80.3964 3.1057 L 80.4048 3.1235 L 80.4114 3.1419 L 80.4162 3.1610 L 80.4190 3.1804 L 80.4200 3.2000 L 80.4200 3.6600 L 80.4190 3.6796 L 80.4162 3.6990 L 80.4114 3.7181 L 80.4048 3.7365 L 80.3964 3.7543 L 80.3863 3.7711 L 80.3746 3.7869 L 80.3614 3.8014 L 80.3469 3.8146 L 80.3311 3.8263 L 80.3143 3.8364 L 80.2965 3.8448 L 80.2781 3.8514 L 80.2590 3.8562 L 80.2396 3.8590 L 80.2200 3.8600 L 78.7049 3.8600 L 78.7002 3.8602 L 78.7000 3.8649 L 78.7000 5.0651 L 78.7002 5.0698 L 78.7049 5.0700 L 80.2200 5.0700 L 80.2396 5.0710 L 80.2590 5.0738 L 80.2781 5.0786 L 80.2965 5.0852 L 80.3143 5.0936 L 80.3311 5.1037 L 80.3469 5.1154 L 80.3614 5.1286 L 80.3746 5.1431 L 80.3863 5.1589 L 80.3964 5.1757 L 80.4048 5.1935 L 80.4114 5.2119 L 80.4162 5.2310 L 80.4190 5.2504 L 80.4200 5.2700 L 80.4200 7.8000 L 80.4190 7.8196 L 80.4162 7.8390 L 80.4114 7.8581 L 80.4048 7.8765 L 80.3964 7.8943 L 80.3863 7.9111 L 80.3746 7.9269 L 80.3614 7.9414 L 80.3469 7.9546 L 80.3311 7.9663 L 80.3143 7.9764 L 80.2965 7.9848 L 80.2781 7.9914 L 80.2590 7.9962 L 80.2396 7.9990 L 80.2200 8.0000 L 78.0400 8.0000 Z M 78.7000 7.1351 L 78.7002 7.1398 L 78.7049 7.1400 L 79.5551 7.1400 L 79.5598 7.1398 L 79.5600 7.1351 L 79.5600 5.9349 L 79.5598 5.9302 L 79.5551 5.9300 L 78.7049 5.9300 L 78.7002 5.9302 L 78.7000 5.9349 L 78.7000 7.1351 Z" fill="#000000" fill-rule="evenodd"/>
<path d="M 82.1400 5.5000 A 2.5 2.5 0 1 0 87.1400 5.5000 A 2.5 2.5 0 1 0 82.1400 5.5000 Z M 83.8100 5.5000 A 0.83 0.83 0 1 0 85.4700 5.5000 A 0.83 0.83 0 1 0 83.8100 5.5000 Z" fill="#000000" fill-rule="evenodd"/>
<path d="M 90.5798 3.8602 L 90.5751 3.8600 L 89.0600 3.8600 L 89.0404 3.8590 L 89.0210 3.8562 L 89.0019 3.8514 L 88.9835 3.8448 L 88.9657 3.8364 L 88.9489 3.8263 L 88.9331 3.8146 L 88.9186 3.8014 L 88.9054 3.7869 L 88.8937 3.7711 L 88.8836 3.7543 L 88.8752 3.7365 L 88.8686 3.7181 L 88.8638 3.6990 L 88.8610 3.6796 L 88.8600 3.6600 L 88.8600 3.2000 L 88.8610 3.1804 L 88.8638 3.1610 L 88.8686 3.1419 L 88.8752 3.1235 L 88.8836 3.1057 L 88.8937 3.0889 L 88.9054 3.0731 L 88.9186 3.0586 L 88.9331 3.0454 L 88.9489 3.0337 L 88.9657 3.0236 L 88.9835 3.0152 L 89.0019 3.0086 L 89.0210 3.0038 L 89.0404 3.0010 L 89.0600 3.0000 L 91.2400 3.0000 L 91.2596 3.0010 L 91.2790 3.0038 L 91.2981 3.0086 L 91.3165 3.0152 L 91.3343 3.0236 L 91.3511 3.0337 L 91.3669 3.0454 L 91.3814 3.0586 L 91.3946 3.0731 L 91.4063 3.0889 L 91.4164 3.1057 L 91.4248 3.1235 L 91.4314 3.1419 L 91.4362 3.1610 L 91.4390 3.1804 L 91.4400 3.2000 L 91.4400 7.8000 L 91.4390 7.8196 L 91.4362 7.8390 L 91.4314 7.8581 L 91.4248 7.8765 L 91.4164 7.8943 L 91.4063 7.9111 L 91.3946 7.9269 L 91.3814 7.9414 L 91.3669 7.9546 L 91.3511 7.9663 L 91.3343 7.9764 L 91.3165 7.9848 L 91.2981 7.9914 L 91.2790 7.9962 L 91.2596 7.9990 L 91.2400 8.0000 L 90.7800 8.0000 L 90.7604 7.9990 L 90.7410 7.9962 L 90.7219 7.9914 L 90.7035 7.9848 L 90.6857 7.9764 L 90.6689 7.9663 L 90.6531 7.9546 L 90.6386 7.9414 L 90.6254 7.9269 L 90.6137 7.9111 L 90.6036 7.8943 L 90.5952 7.8765 L 90.5886 7.8581 L 90.5838 7.8390 L 90.5810 7.8196 L 90.5800 7.8000 L 90.5800 3.8649 L 90.5798 3.8602 Z" fill="#000000" fill-rule="evenodd"/>
<path d="M 93.1600 5.5000 A 2.5 2.5 0 1 0 98.1600 5.5000 A 2.5 2.5 0 1 0 93.1600 5.5000 Z M 94.8300 5.5000 A 0.83 0.83 0 1 0 96.4900 5.5000 A 0.83 0.83 0 1 0 94.8300 5.5000 Z" fill="#000000" fill-rule="evenodd"/>
<path d="M 100.0800 8.0000 L 100.0604 7.9990 L 100.0410 7.9962 L 100.0219 7.9914 L 100.0035 7.9848 L 99.9857 7.9764 L 99.9689 7.9663 L 99.9531 7.9546 L 99.9386 7.9414 L 99.9254 7.9269 L 99.9137 7.9111 L 99.9036 7.8943 L 99.8952 7.8765 L 99.8886 7.8581 L 99.8838 7.8390 L 99.8810 7.8196 L 99.8800 7.8000 L 99.8800 3.2000 L 99.8810 3.1804 L 99.8838 3.1610 L 99.8886 3.1419 L 99.8952 3.1235 L 99.9036 3.1057 L 99.9137 3.0889 L 99.9254 3.0731 L 99.9386 3.0586 L 99.9531 3.0454 L 99.9689 3.0337 L 99.9857 3.0236 L 100.0035 3.0152 L 100.0219 3.0086 L 100.0410 3.0038 L 100.0604 3.0010 L 100.0800 3.0000 L 102.2600 3.0000 L 102.2796 3.0010 L 102.2990 3.0038 L 102.3181 3.0086 L 102.3365 3.0152 L 102.3543 3.0236 L 102.3711 3.0337 L 102.3869 3.0454 L 102.4014 3.0586 L 102.4146 3.0731 L 102.4263 3.0889 L 102.4364 3.1057 L 102.4448 3.1235 L 102.4514 3.1419 L 102.4562 3.1610 L 102.4590 3.1804 L 102.4600 3.2000 L 102.4600 7.8000 L 102.4590 7.8196 L 102.4562 7.8390 L 102.4514 7.8581 L 102.4448 7.8765 L 102.4364 7.8943 L 102.4263 7.9111 L 102.4146 7.9269 L 102.4014 7.9414 L 102.3869 7.9546 L 102.3711 7.9663 L 102.3543 7.9764 L 102.3365 7.9848 L 102.3181 7.9914 L 102.2990 7.9962 L 102.2796 7.9990 L 102.2600 8.0000 L 100.0800 8.0000 Z M 100.7400 7.1351 L 100.7402 7.1398 L 100.7449 7.1400 L 101.5951 7.1400 L 101.5998 7.1398 L 101.6000 7.1351 L 101.6000 5.9349 L 101.5998 5.9302 L 101.5951 5.9300 L 100.7449 5.9300 L 100.7402 5.9302 L 100.7400 5.9349 L 100.7400 7.1351 Z M 100.7402 5.0698 L 100.7449 5.0700 L 101.5951 5.0700 L 101.5998 5.0698 L 101.6000 5.0651 L 101.6000 3.8649 L 101.5998 3.8602 L 101.5951 3.8600 L 100.7449 3.8600 L 100.7402 3.8602 L 100.7400 3.8649 L 100.7400 5.0651 L 100.7402 5.0698 Z" fill="#000000" fill-rule="evenodd"/>
<path d="M 104.1800 5.5000 A 2.5 2.5 0 1 0 109.1800 5.5000 A 2.5 2.5 0 1 0 104.1800 5.5000 Z M 105.8500 5.5000 A 0.83 0.83 0 1 0 107.5100 5.5000 A 0.83 0.83 0 1 0 105.8500 5.5000 Z" fill="#000000" fill-rule="evenodd"/>
<path d="M 111.1000 8.0000 L 111.0804 7.9990 L 111.0610 7.9962 L 111.0419 7.9914 L 111.0235 7.9848 L 111.0057 7.9764 L 110.9889 7.9663 L 110.9731 7.9546 L 110.9586 7.9414 L 110.9454 7.9269 L 110.9337 7.9111 L 110.9236 7.8943 L 110.9152 7.8765 L 110.9086 7.8581 L 110.9038 7.8390 L 110.9010 7.8196 L 110.9000 7.8000 L 110.9000 7.3400 L 110.9010 7.3204 L 110.9038 7.3010 L 110.9086 7.2819 L 110.9152 7.2635 L 110.9236 7.2457 L 110.9337 7.2289 L 110.9454 7.2131 L 110.9586 7.1986 L 110.9731 7.1854 L 110.9889 7.1737 L 111.0057 7.1636 L 111.0235 7.1552 L 111.0419 7.1486 L 111.0610 7.1438 L 111.0804 7.1410 L 111.1000 7.1400 L 112.6151 7.1400 L 112.6198 7.1398 L 112.6200 7.1351 L 112.6200 5.9349 L 112.6198 5.9302 L 112.6151 5.9300 L 111.1000 5.9300 L 111.0804 5.9290 L 111.0610 5.9262 L 111.0419 5.9214 L 111.0235 5.9148 L 111.0057 5.9064 L 110.9889 5.8963 L 110.9731 5.8846 L 110.9586 5.8714 L 110.9454 5.8569 L 110.9337 5.8411 L 110.9236 5.8243 L 110.9152 5.8065 L 110.9086 5.7881 L 110.9038 5.7690 L 110.9010 5.7496 L 110.9000 5.7300 L 110.9000 3.2000 L 110.9010 3.1804 L 110.9038 3.1610 L 110.9086 3.1419 L 110.9152 3.1235 L 110.9236 3.1057 L 110.9337 3.0889 L 110.9454 3.0731 L 110.9586 3.0586 L 110.9731 3.0454 L 110.9889 3.0337 L 111.0057 3.0236 L 111.0235 3.0152 L 111.0419 3.0086 L 111.0610 3.0038 L 111.0804 3.0010 L 111.1000 3.0000 L 113.2800 3.0000 L 113.2996 3.0010 L 113.3190 3.0038 L 113.3381 3.0086 L 113.3565 3.0152 L 113.3743 3.0236 L 113.3911 3.0337 L 113.4069 3.0454 L 113.4214 3.0586 L 113.4346 3.0731 L 113.4463 3.0889 L 113.4564 3.1057 L 113.4648 3.1235 L 113.4714 3.1419 L 113.4762 3.1610 L 113.4790 3.1804 L 113.4800 3.2000 L 113.4800 7.8000 L 113.4790 7.8196 L 113.4762 7.8390 L 113.4714 7.8581 L 113.4648 7.8765 L 113.4564 7.8943 L 113.4463 7.9111 L 113.4346 7.9269 L 113.4214 7.9414 L 113.4069 7.9546 L 113.3911 7.9663 L 113.3743 7.9764 L 113.3565 7.9848 L 113.3381 7.9914 L 113.3190 7.9962 L 113.2996 7.9990 L 113.2800 8.0000 L 111.1000 8.0000 Z M 111.7602 5.0698 L 111.7649 5.0700 L 112.6151 5.0700 L 112.6198 5.0698 L 112.6200 5.0651 L 112.6200 3.8649 L 112.6198 3.8602 L 112.6151 3.8600 L 111.7649 3.8600 L 111.7602 3.8602 L 111.7600 3.8649 L 111.7600 5.0651 L 111.7602 5.0698 Z" fill="#000000" fill-rule="evenodd"/>
<path d="M 115.2000 5.5000 A 2.5 2.5 0 1 0 120.2000 5.5000 A 2.5 2.5 0 1 0 115.2000 5.5000 Z M 116.8700 5.5000 A 0.83 0.83 0 1 0 118.5300 5.5000 A 0.83 0.83 0 1 0 116.8700 5.5000 Z" fill="#000000" fill-rule="evenodd"/>
<path d="M 122.1200 8.0000 L 122.1004 7.9990 L 122.0810 7.9962 L 122.0619 7.9914 L 122.0435 7.9848 L 122.0257 7.9764 L 122.0089 7.9663 L 121.9931 7.9546 L 121.9786 7.9414 L 121.9654 7.9269 L 121.9537 7.9111 L 121.9436 7.8943 L 121.9352 7.8765 L 121.9286 7.8581 L 121.9238 7.8390 L 121.9210 7.8196 L 121.9200 7.8000 L 121.9200 3.2000 L 121.9210 3.1804 L 121.9238 3.1610 L 121.9286 3.1419 L 121.9352 3.1235 L 121.9436 3.1057 L 121.9537 3.0889 L 121.9654 3.0731 L 121.9786 3.0586 L 121.9931 3.0454 L 122.0089 3.0337 L 122.0257 3.0236 L 122.0435 3.0152 L 122.0619 3.0086 L 122.0810 3.0038 L 122.1004 3.0010 L 122.1200 3.0000 L 124.3000 3.0000 L 124.3196 3.0010 L 124.3390 3.0038 L 124.3581 3.0086 L 124.3765 3.0152 L 124.3943 3.0236 L 124.4111 3.0337 L 124.4269 3.0454 L 124.4414 3.0586 L 124.4546 3.0731 L 124.4663 3.0889 L 124.4764 3.1057 L 124.4848 3.1235 L 124.4914 3.1419 L 124.4962 3.1610 L 124.4990 3.1804 L 124.5000 3.2000 L 124.5000 7.8000 L 124.4990 7.8196 L 124.4962 7.8390 L 124.4914 7.8581 L 124.4848 7.8765 L 124.4764 7.8943 L 124.4663 7.9111 L 124.4546 7.9269 L 124.4414 7.9414 L 124.4269 7.9546 L 124.4111 7.9663 L 124.3943 7.9764 L 124.3765 7.9848 L 124.3581 7.9914 L 124.3390 7.9962 L 124.3196 7.9990 L 124.3000 8.0000 L 123.8400 8.0000 L 123.8204 7.9990 L 123.8010 7.9962 L 123.7819 7.9914 L 123.7635 7.9848 L 123.7457 7.9764 L 123.7289 7.9663 L 123.7131 7.9546 L 123.6986 7.9414 L 123.6854 7.9269 L 123.6737 7.9111 L 123.6636 7.8943 L 123.6552 7.8765 L 123.6486 7.8581 L 123.6438 7.8390 L 123.6410 7.8196 L 123.6400 7.8000 L 123.6400 5.9349 L 123.6398 5.9302 L 123.6351 5.9300 L 122.7849 5.9300 L 122.7802 5.9302 L 122.7800 5.9349 L 122.7800 7.8000 L 122.7790 7.8196 L 122.7762 7.8390 L 122.7714 7.8581 L 122.7648 7.8765 L 122.7564 7.8943 L 122.7463 7.9111 L 122.7346 7.9269 L 122.7214 7.9414 L 122.7069 7.9546 L 122.6911 7.9663 L 122.6743 7.9764 L 122.6565 7.9848 L 122.6381 7.9914 L 122.6190 7.9962 L 122.5996 7.9990 L 122.5800 8.0000 L 122.1200 8.0000 Z M 122.7802 5.0698 L 122.7849 5.0700 L 123.6351 5.0700 L 123.6398 5.0698 L 123.6400 5.0651 L 123.6400 3.8649 L 123.6398 3.8602 L 123.6351 3.8600 L 122.7849 3.8600 L 122.7802 3.8602 L 122.7800 3.8649 L 122.7800 5.0651 L 122.7802 5.0698 Z" fill="#000000" fill-rule="evenodd"/>
<path d="M 126.2200 5.5000 A 2.5 2.5 0 1 0 131.2200 5.5000 A 2.5 2.5 0 1 0 126.2200 5.5000 Z M 127.8900 5.5000 A 0.83 0.83 0 1 0 129.5500 5.5000 A 0.83 0.83 0 1 0 127.8900 5.5000 Z" fill="#000000" fill-rule="evenodd"/>
<path d="M 133.8002 5.0698 L 133.8049 5.0700 L 135.3200 5.0700 L 135.3396 5.0710 L 135.3590 5.0738 L 135.3781 5.0786 L 135.3965 5.0852 L 135.4143 5.0936 L 135.4311 5.1037 L 135.4469 5.1154 L 135.4614 5.1286 L 135.4746 5.1431 L 135.4863 5.1589 L 135.4964 5.1757 L 135.5048 5.1935 L 135.5114 5.2119 L 135.5162 5.2310 L 135.5190 5.2504 L 135.5200 5.2700 L 135.5200 7.8000 L 135.5190 7.8196 L 135.5162 7.8390 L 135.5114 7.8581 L 135.5048 7.8765 L 135.4964 7.8943 L 135.4863 7.9111 L 135.4746 7.9269 L 135.4614 7.9414 L 135.4469 7.9546 L 135.4311 7.9663 L 135.4143 7.9764 L 135.3965 7.9848 L 135.3781 7.9914 L 135.3590 7.9962 L 135.3396 7.9990 L 135.3200 8.0000 L 133.1400 8.0000 L 133.1204 7.9990 L 133.1010 7.9962 L 133.0819 7.9914 L 133.0635 7.9848 L 133.0457 7.9764 L 133.0289 7.9663 L 133.0131 7.9546 L 132.9986 7.9414 L 132.9854 7.9269 L 132.9737 7.9111 L 132.9636 7.8943 L 132.9552 7.8765 L 132.9486 7.8581 L 132.9438 7.8390 L 132.9410 7.8196 L 132.9400 7.8000 L 132.9400 3.2000 L 132.9410 3.1804 L 132.9438 3.1610 L 132.9486 3.1419 L 132.9552 3.1235 L 132.9636 3.1057 L 132.9737 3.0889 L 132.9854 3.0731 L 132.9986 3.0586 L 133.0131 3.0454 L 133.0289 3.0337 L 133.0457 3.0236 L 133.0635 3.0152 L 133.0819 3.0086 L 133.1010 3.0038 L 133.1204 3.0010 L 133.1400 3.0000 L 133.6000 3.0000 L 133.6196 3.0010 L 133.6390 3.0038 L 133.6581 3.0086 L 133.6765 3.0152 L 133.6943 3.0236 L 133.7111 3.0337 L 133.7269 3.0454 L 133.7414 3.0586 L 133.7546 3.0731 L 133.7663 3.0889 L 133.7764 3.1057 L 133.7848 3.1235 L 133.7914 3.1419 L 133.7962 3.1610 L 133.7990 3.1804 L 133.8000 3.2000 L 133.8000 5.0651 L 133.8002 5.0698 Z M 133.8000 7.1351 L 133.8002 7.1398 L 133.8049 7.1400 L 134.6551 7.1400 L 134.6598 7.1398 L 134.6600 7.1351 L 134.6600 5.9349 L 134.6598 5.9302 L 134.6551 5.9300 L 133.8049 5.9300 L 133.8002 5.9302 L 133.8000 5.9349 L 133.8000 7.1351 Z" fill="#000000" fill-rule="evenodd"/>
<path d="M 137.2400 5.5000 A 2.5 2.5 0 1 0 142.2400 5.5000 A 2.5 2.5 0 1 0 137.2400 5.5000 Z M 138.9100 5.5000 A 0.83 0.83 0 1 0 140.5700 5.5000 A 0.83 0.83 0 1 0 138.9100 5.5000 Z" fill="#000000" fill-rule="evenodd"/>
<path d="M 144.8202 7.1398 L 144.8249 7.1400 L 146.3400 7.1400 L 146.3596 7.1410 L 146.3790 7.1438 L 146.3981 7.1486 L 146.4165 7.1552 L 146.4343 7.1636 L 146.4511 7.1737 L 146.4669 7.1854 L 146.4814 7.1986 L 146.4946 7.2131 L 146.5063 7.2289 L 146.5164 7.2457 L 146.5248 7.2635 L 146.5314 7.2819 L 146.5362 7.3010 L 146.5390 7.3204 L 146.5400 7.3400 L 146.5400 7.8000 L 146.5390 7.8196 L 146.5362 7.8390 L 146.5314 7.8581 L 146.5248 7.8765 L 146.5164 7.8943 L 146.5063 7.9111 L 146.4946 7.9269 L 146.4814 7.9414 L 146.4669 7.9546 L 146.4511 7.9663 L 146.4343 7.9764 L 146.4165 7.9848 L 146.3981 7.9914 L 146.3790 7.9962 L 146.3596 7.9990 L 146.3400 8.0000 L 144.1600 8.0000 L 144.1404 7.9990 L 144.1210 7.9962 L 144.1019 7.9914 L 144.0835 7.9848 L 144.0657 7.9764 L 144.0489 7.9663 L 144.0331 7.9546 L 144.0186 7.9414 L 144.0054 7.9269 L 143.9937 7.9111 L 143.9836 7.8943 L 143.9752 7.8765 L 143.9686 7.8581 L 143.9638 7.8390 L 143.9610 7.8196 L 143.9600 7.8000 L 143.9600 3.2000 L 143.9610 3.1804 L 143.9638 3.1610 L 143.9686 3.1419 L 143.9752 3.1235 L 143.9836 3.1057 L 143.9937 3.0889 L 144.0054 3.0731 L 144.0186 3.0586 L 144.0331 3.0454 L 144.0489 3.0337 L 144.0657 3.0236 L 144.0835 3.0152 L 144.1019 3.0086 L 144.1210 3.0038 L 144.1404 3.0010 L 144.1600 3.0000 L 146.3400 3.0000 L 146.3596 3.0010 L 146.3790 3.0038 L 146.3981 3.0086 L 146.4165 3.0152 L 146.4343 3.0236 L 146.4511 3.0337 L 146.4669 3.0454 L 146.4814 3.0586 L 146.4946 3.0731 L 146.5063 3.0889 L 146.5164 3.1057 L 146.5248 3.1235 L 146.5314 3.1419 L 146.5362 3.1610 L 146.5390 3.1804 L 146.5400 3.2000 L 146.5400 3.6600 L 146.5390 3.6796 L 146.5362 3.6990 L 146.5314 3.7181 L 146.5248 3.7365 L 146.5164 3.7543 L 146.5063 3.7711 L 146.4946 3.7869 L 146.4814 3.8014 L 146.4669 3.8146 L 146.4511 3.8263 L 146.4343 3.8364 L 146.4165 3.8448 L 146.3981 3.8514 L 146.3790 3.8562 L 146.3596 3.8590 L 146.3400 3.8600 L 144.8249 3.8600 L 144.8202 3.8602 L 144.8200 3.8649 L 144.8200 7.1351 L 144.8202 7.1398 Z" fill="#000000" fill-rule="evenodd"/>
<path d="M 148.2600 5.5000 A 2.5 2.5 0 1 0 153.2600 5.5000 A 2.5 2.5 0 1 0 148.2600 5.5000 Z M 149.9300 5.5000 A 0.83 0.83 0 1 0 151.5900 5.5000 A 0.83 0.83 0 1 0 149.9300 5.5000 Z" fill="#000000" fill-rule="evenodd"/>
<path d="M 156.6998 5.0698 L 156.7000 5.0651 L 156.7000 3.2000 L 156.7010 3.1804 L 156.7038 3.1610 L 156.7086 3.1419 L 156.7152 3.1235 L 156.7236 3.1057 L 156.7337 3.0889 L 156.7454 3.0731 L 156.7586 3.0586 L 156.7731 3.0454 L 156.7889 3.0337 L 156.8057 3.0236 L 156.8235 3.0152 L 156.8419 3.0086 L 156.8610 3.0038 L 156.8804 3.0010 L 156.9000 3.0000 L 157.3600 3.0000 L 157.3796 3.0010 L 157.3990 3.0038 L 157.4181 3.0086 L 157.4365 3.0152 L 157.4543 3.0236 L 157.4711 3.0337 L 157.4869 3.0454 L 157.5014 3.0586 L 157.5146 3.0731 L 157.5263 3.0889 L 157.5364 3.1057 L 157.5448 3.1235 L 157.5514 3.1419 L 157.5562 3.1610 L 157.5590 3.1804 L 157.5600 3.2000 L 157.5600 7.8000 L 157.5590 7.8196 L 157.5562 7.8390 L 157.5514 7.8581 L 157.5448 7.8765 L 157.5364 7.8943 L 157.5263 7.9111 L 157.5146 7.9269 L 157.5014 7.9414 L 157.4869 7.9546 L 157.4711 7.9663 L 157.4543 7.9764 L 157.4365 7.9848 L 157.4181 7.9914 L 157.3990 7.9962 L 157.3796 7.9990 L 157.3600 8.0000 L 155.1800 8.0000 L 155.1604 7.9990 L 155.1410 7.9962 L 155.1219 7.9914 L 155.1035 7.9848 L 155.0857 7.9764 L 155.0689 7.9663 L 155.0531 7.9546 L 155.0386 7.9414 L 155.0254 7.9269 L 155.0137 7.9111 L 155.0036 7.8943 L 154.9952 7.8765 L 154.9886 7.8581 L 154.9838 7.8390 L 154.9810 7.8196 L 154.9800 7.8000 L 154.9800 5.2700 L 154.9810 5.2504 L 154.9838 5.2310 L 154.9886 5.2119 L 154.9952 5.1935 L 155.0036 5.1757 L 155.0137 5.1589 L 155.0254 5.1431 L 155.0386 5.1286 L 155.0531 5.1154 L 155.0689 5.1037 L 155.0857 5.0936 L 155.1035 5.0852 L 155.1219 5.0786 L 155.1410 5.0738 L 155.1604 5.0710 L 155.1800 5.0700 L 156.6951 5.0700 L 156.6998 5.0698 Z M 155.8400 7.1351 L 155.8402 7.1398 L 155.8449 7.1400 L 156.6951 7.1400 L 156.6998 7.1398 L 156.7000 7.1351 L 156.7000 5.9349 L 156.6998 5.9302 L 156.6951 5.9300 L 155.8449 5.9300 L 155.8402 5.9302 L 155.8400 5.9349 L 155.8400 7.1351 Z" fill="#000000" fill-rule="evenodd"/>
<path d="M 159.2800 5.5000 A 2.5 2.5 0 1 0 164.2800 5.5000 A 2.5 2.5 0 1 0 159.2800 5.5000 Z M 160.9500 5.5000 A 0.83 0.83 0 1 0 162.6100 5.5000 A 0.83 0.83 0 1 0 160.9500 5.5000 Z" fill="#000000" fill-rule="evenodd"/>
<path d="M 166.8602 7.1398 L 166.8649 7.1400 L 168.3800 7.1400 L 168.3996 7.1410 L 168.4190 7.1438 L 168.4381 7.1486 L 168.4565 7.1552 L 168.4743 7.1636 L 168.4911 7.1737 L 168.5069 7.1854 L 168.5214 7.1986 L 168.5346 7.2131 L 168.5463 7.2289 L 168.5564 7.2457 L 168.5648 7.2635 L 168.5714 7.2819 L 168.5762 7.3010 L 168.5790 7.3204 L 168.5800 7.3400 L 168.5800 7.8000 L 168.5790 7.8196 L 168.5762 7.8390 L 168.5714 7.8581 L 168.5648 7.8765 L 168.5564 7.8943 L 168.5463 7.9111 L 168.5346 7.9269 L 168.5214 7.9414 L 168.5069 7.9546 L 168.4911 7.9663 L 168.4743 7.9764 L 168.4565 7.9848 L 168.4381 7.9914 L 168.4190 7.9962 L 168.3996 7.9990 L 168.3800 8.0000 L 166.2000 8.0000 L 166.1804 7.9990 L 166.1610 7.9962 L 166.1419 7.9914 L 166.1235 7.9848 L 166.1057 7.9764 L 166.0889 7.9663 L 166.0731 7.9546 L 166.0586 7.9414 L 166.0454 7.9269 L 166.0337 7.9111 L 166.0236 7.8943 L 166.0152 7.8765 L 166.0086 7.8581 L 166.0038 7.8390 L 166.0010 7.8196 L 166.0000 7.8000 L 166.0000 3.2000 L 166.0010 3.1804 L 166.0038 3.1610 L 166.0086 3.1419 L 166.0152 3.1235 L 166.0236 3.1057 L 166.0337 3.0889 L 166.0454 3.0731 L 166.0586 3.0586 L 166.0731 3.0454 L 166.0889 3.0337 L 166.1057 3.0236 L 166.1235 3.0152 L 166.1419 3.0086 L 166.1610 3.0038 L 166.1804 3.0010 L 166.2000 3.0000 L 168.3800 3.0000 L 168.3996 3.0010 L 168.4190 3.0038 L 168.4381 3.0086 L 168.4565 3.0152 L 168.4743 3.0236 L 168.4911 3.0337 L 168.5069 3.0454 L 168.5214 3.0586 L 168.5346 3.0731 L 168.5463 3.0889 L 168.5564 3.1057 L 168.5648 3.1235 L 168.5714 3.1419 L 168.5762 3.1610 L 168.5790 3.1804 L 168.5800 3.2000 L 168.5800 3.6600 L 168.5790 3.6796 L 168.5762 3.6990 L 168.5714 3.7181 L 168.5648 3.7365 L 168.5564 3.7543 L 168.5463 3.7711 L 168.5346 3.7869 L 168.5214 3.8014 L 168.5069 3.8146 L 168.4911 3.8263 L 168.4743 3.8364 L 168.4565 3.8448 L 168.4381 3.8514 L 168.4190 3.8562 L 168.3996 3.8590 L 168.3800 3.8600 L 166.8649 3.8600 L 166.8602 3.8602 L 166.8600 3.8649 L 166.8600 5.0651 L 166.8602 5.0698 L 166.8649 5.0700 L 168.3800 5.0700 L 168.3996 5.0710 L 168.4190 5.0738 L 168.4381 5.0786 L 168.4565 5.0852 L 168.4743 5.0936 L 168.4911 5.1037 L 168.5069 5.1154 L 168.5214 5.1286 L 168.5346 5.1431 L 168.5463 5.1589 L 168.5564 5.1757 L 168.5648 5.1935 L 168.5714 5.2119 L 168.5762 5.2310 L 168.5790 5.2504 L 168.5800 5.2700 L 168.5800 5.7300 L 168.5790 5.7496 L 168.5762 5.7690 L 168.5714 5.7881 L 168.5648 5.8065 L 168.5564 5.8243 L 168.5463 5.8411 L 168.5346 5.8569 L 168.5214 5.8714 L 168.5069 5.8846 L 168.4911 5.8963 L 168.4743 5.9064 L 168.4565 5.9148 L 168.4381 5.9214 L 168.4190 5.9262 L 168.3996 5.9290 L 168.3800 5.9300 L 166.8649 5.9300 L 166.8602 5.9302 L 166.8600 5.9349 L 166.8600 7.1351 L 166.8602 7.1398 Z" fill="#000000" fill-rule="evenodd"/>
<path d="M 170.3000 5.5000 A 2.5 2.5 0 1 0 175.3000 5.5000 A 2.5 2.5 0 1 0 170.3000 5.5000 Z M 171.9700 5.5000 A 0.83 0.83 0 1 0 173.6300 5.5000 A 0.83 0.83 0 1 0 171.9700 5.5000 Z" fill="#000000" fill-rule="evenodd"/>
<path d="M 177.2200 8.0000 L 177.2004 7.9990 L 177.1810 7.9962 L 177.1619 7.9914 L 177.1435 7.9848 L 177.1257 7.9764 L 177.1089 7.9663 L 177.0931 7.9546 L 177.0786 7.9414 L 177.0654 7.9269 L 177.0537 7.9111 L 177.0436 7.8943 L 177.0352 7.8765 L 177.0286 7.8581 L 177.0238 7.8390 L 177.0210 7.8196 L 177.0200 7.8000 L 177.0200 3.2000 L 177.0210 3.1804 L 177.0238 3.1610 L 177.0286 3.1419 L 177.0352 3.1235 L 177.0436 3.1057 L 177.0537 3.0889 L 177.0654 3.0731 L 177.0786 3.0586 L 177.0931 3.0454 L 177.1089 3.0337 L 177.1257 3.0236 L 177.1435 3.0152 L 177.1619 3.0086 L 177.1810 3.0038 L 177.2004 3.0010 L 177.2200 3.0000 L 179.4000 3.0000 L 179.4196 3.0010 L 179.4390 3.0038 L 179.4581 3.0086 L 179.4765 3.0152 L 179.4943 3.0236 L 179.5111 3.0337 L 179.5269 3.0454 L 179.5414 3.0586 L 179.5546 3.0731 L 179.5663 3.0889 L 179.5764 3.1057 L 179.5848 3.1235 L 179.5914 3.1419 L 179.5962 3.1610 L 179.5990 3.1804 L 179.6000 3.2000 L 179.6000 3.6600 L 179.5990 3.6796 L 179.5962 3.6990 L 179.5914 3.7181 L 179.5848 3.7365 L 179.5764 3.7543 L 179.5663 3.7711 L 179.5546 3.7869 L 179.5414 3.8014 L 179.5269 3.8146 L 179.5111 3.8263 L 179.4943 3.8364 L 179.4765 3.8448 L 179.4581 3.8514 L 179.4390 3.8562 L 179.4196 3.8590 L 179.4000 3.8600 L 177.8849 3.8600 L 177.8802 3.8602 L 177.8800 3.8649 L 177.8800 5.0651 L 177.8802 5.0698 L 177.8849 5.0700 L 179.4000 5.0700 L 179.4196 5.0710 L 179.4390 5.0738 L 179.4581 5.0786 L 179.4765 5.0852 L 179.4943 5.0936 L 179.5111 5.1037 L 179.5269 5.1154 L 179.5414 5.1286 L 179.5546 5.1431 L 179.5663 5.1589 L 179.5764 5.1757 L 179.5848 5.1935 L 179.5914 5.2119 L 179.5962 5.2310 L 179.5990 5.2504 L 179.6000 5.2700 L 179.6000 5.7300 L 179.5990 5.7496 L 179.5962 5.7690 L 179.5914 5.7881 L 179.5848 5.8065 L 179.5764 5.8243 L 179.5663 5.8411 L 179.5546 5.8569 L 179.5414 5.8714 L 179.5269 5.8846 L 179.5111 5.8963 L 179.4943 5.9064 L 179.4765 5.9148 L 179.4581 5.9214 L 179.4390 5.9262 L 179.4196 5.9290 L 179.4000 5.9300 L 177.8849 5.9300 L 177.8802 5.9302 L 177.8800 5.9349 L 177.8800 7.8000 L 177.8790 7.8196 L 177.8762 7.8390 L 177.8714 7.8581 L 177.8648 7.8765 L 177.8564 7.8943 L 177.8463 7.9111 L 177.8346 7.9269 L 177.8214 7.9414 L 177.8069 7.9546 L 177.7911 7.9663 L 177.7743 7.9764 L 177.7565 7.9848 L 177.7381 7.9914 L 177.7190 7.9962 L 177.6996 7.9990 L 177.6800 8.0000 L 177.2200 8.0000 Z" fill="#000000" fill-rule="evenodd"/>
</svg>